Patient4_TMGait_0pt3_01_right_08_GRF.mot
version=1
nRows=71
nColumns=19
inDegrees=no
endheader
time	F1x	F1y	F1z	M1x	M1y	M1z	F2x	F2y	F2z	M2x	M2y	M2z	EC1x	EC1y	EC1z	EC2x	EC2y	EC2z
13.57	-7.7148	728.2441	57.2001	-280.2713	-61.1602	781.122	-6.6329	17.563	0.91842	4.6705	2.464	19.012	-0.0592	0.0182	-0.0073	-0.0462	0.0165	0.9585
13.5895	-7.5034	745.243	58.5637	-287.4312	-62.3362	795.2168	-4.8744	12.7768	0.54374	3.4587	1.8559	13.8128	-0.0592	0.0182	-0.0073	-0.0462	0.0165	0.9585
13.609	-6.98	765.9656	60.1158	-296.0599	-63.4454	812.3466	-3.2293	8.5336	0.25127	2.3769	1.2795	9.2235	-0.0592	0.0182	-0.0073	-0.0462	0.0165	0.9585
13.6285	-6.1493	788.9669	61.7391	-305.552	-64.3637	831.191	-1.8795	5.1962	0.048607	1.5227	0.80317	5.6278	-0.0592	0.0182	-0.0073	-0.0462	0.0165	0.9585
13.648	-5.0886	812.0587	63.3345	-315.0208	-65.0341	849.7072	-0.88462	2.8271	-0.075046	0.91493	0.45216	3.0837	-0.0592	0.0182	-0.0073	-0.0462	0.0165	0.9585
13.6675	-3.896	832.6196	64.7991	-323.4269	-65.422	865.3987	-0.22786	1.3122	-0.13966	0.52533	0.22409	1.4637	-0.0592	0.0182	-0.0073	-0.0462	0.0165	0.9585
13.687	-2.6009	848.1784	65.9826	-329.8105	-65.4271	875.8675	0.14487	0.44849	-0.16677	0.30191	0.098673	0.54862	-0.0592	0.0182	-0.0073	-0.0462	0.0165	0.9585
13.7065	-1.1248	856.9391	66.6954	-333.4953	-64.8641	879.3309	0.30143	0.0019894	-0.17145	0.18188	0.046953	0.083376	-0.0592	0.0182	-0.0073	-0.0462	0.0165	0.9585
13.726	0.65315	857.9793	66.7676	-334.1549	-63.5406	874.8542	0.30981	-0.25966	-0.16328	0.09967	0.046208	-0.18547	-0.0592	0.0182	-0.0073	-0.0462	0.0165	0.9585
13.7455	2.8467	851.2962	66.0925	-331.8179	-61.323	862.4267	0.22844	-0.54691	-0.14843	-0.0064618	0.074776	-0.4854	-0.0592	0.0182	-0.0073	-0.0462	0.0165	0.9585
13.765	5.5543	837.7835	64.6488	-326.8514	-58.1644	842.9516	0.10746	-1.0376	-0.12951	-0.18993	0.11119	-1.0113	-0.0592	0.0182	-0.0073	-0.0462	0.0165	0.9585
13.7845	8.8246	819.0782	62.5032	-319.8942	-54.1195	818.1052	-0.011845	-1.8698	-0.10766	-0.49273	0.138	-1.9163	-0.0592	0.0182	-0.0073	-0.0462	0.0165	0.9585
13.804	12.6258	797.2814	59.8168	-311.749	-49.3613	790.0566	-0.093839	-3.123	-0.081217	-0.93897	0.13982	-3.2877	-0.0592	0.0182	-0.0073	-0.0462	0.0165	0.9585
13.8235	16.8684	774.7047	56.8363	-303.2908	-44.1654	761.1925	-0.10193	-4.7886	-0.045161	-1.5238	0.10061	-5.1173	-0.0592	0.0182	-0.0073	-0.0462	0.0165	0.9585
13.843	21.4324	753.6389	53.8644	-295.3845	-38.872	733.861	0.0056975	-6.7205	0.006227	-2.1955	0.0022801	-7.2463	-0.0592	0.0182	-0.0073	-0.0462	0.0165	0.9585
13.8625	26.1736	736.0633	51.2106	-288.7817	-33.836	710.0699	0.27586	-8.5728	0.07357	-2.8352	-0.16948	-9.2961	-0.0592	0.0182	-0.0073	-0.0462	0.0165	0.9585
13.882	30.9477	723.3578	49.1274	-284.0125	-29.3559	691.1876	0.75317	-9.7284	0.14769	-3.2305	-0.41723	-10.5951	-0.0592	0.0182	-0.0073	-0.0462	0.0165	0.9585
13.9015	35.6389	716.0393	47.7602	-281.2811	-25.6172	677.7114	1.4704	-9.2374	0.21179	-3.0541	-0.73007	-10.1057	-0.0592	0.0182	-0.0073	-0.0462	0.0165	0.9585
13.921	40.1488	713.5228	47.1447	-280.3639	-22.6953	669.0779	2.4334	-5.7821	0.23706	-1.8507	-1.0749	-6.3813	-0.0592	0.0182	-0.0073	-0.0462	0.0165	0.9585
13.9405	44.3693	714.0664	47.2181	-280.5797	-20.5836	663.6578	3.59	2.2975	0.18076	0.95268	-1.3804	2.4076	-0.0592	0.0182	-0.0073	-0.0462	0.0165	0.9585
13.96	48.1616	715	47.8081	-280.8771	-19.1965	659.0119	4.7893	16.8657	-0.01527	5.9996	-1.5251	18.3206	-0.0592	0.0182	-0.0073	-0.0462	0.0165	0.9585
13.9795	51.3541	713.1005	48.6421	-279.9864	-18.3772	652.2713	5.7455	39.6826	-0.42397	13.8966	-1.3256	43.3108	-0.0592	0.0182	-0.0073	-0.0462	0.0165	0.9585
13.999	53.7226	705.0259	49.3715	-276.5918	-17.9256	640.5379	5.9884	71.8667	-1.1297	25.0283	-0.52569	78.6357	-0.0592	0.0182	-0.0073	-0.0462	0.0165	0.9585
14.0185	54.9834	687.8581	49.6023	-269.5487	-17.6228	621.3666	4.7483	113.2509	-2.234	39.3348	1.2431	124.1479	-0.0592	0.0182	-0.0073	-0.0462	0.0165	0.9585
14.038	54.8423	659.7462	48.9747	-258.1404	-17.2758	593.2972	1.4266	161.9705	-3.8544	56.1638	4.2972	177.8256	-0.0592	0.0182	-0.0073	-0.0462	0.0165	0.9585
14.0575	53.1163	620.5554	47.2636	-242.3377	-16.7544	556.3479	-3.6347	214.5277	-6.1484	74.2816	8.6732	235.779	-0.0592	0.0182	-0.0073	-0.0462	0.0165	0.9585
14.077	49.8725	572.2659	44.4514	-222.9567	-15.997	512.2995	-9.5625	267.0058	-9.2356	92.3039	14.176	293.5664	-0.0592	0.0182	-0.0073	-0.0462	0.0165	0.9585
14.0965	45.4917	518.5793	40.74	-201.4972	-14.9938	464.2964	-15.6093	317.3967	-12.8557	109.5229	20.2492	348.8768	-0.0592	0.0182	-0.0073	-0.0462	0.0165	0.9585
14.116	40.5569	463.5997	36.4564	-179.6154	-13.7526	415.7026	-21.2838	365.3247	-16.6137	125.8102	26.295	401.2556	-0.0592	0.0182	-0.0073	-0.0462	0.0165	0.9585
14.1355	35.5969	410.4849	31.9242	-158.5831	-12.299	369.0185	-26.1957	410.6003	-20.1759	141.1068	31.8357	450.4687	-0.0592	0.0182	-0.0073	-0.0462	0.0165	0.9585
14.155	30.9141	360.9416	27.4442	-139.0791	-10.7331	325.5241	-30.0273	452.6005	-23.367	155.2047	36.6016	495.8177	-0.0592	0.0182	-0.0073	-0.0462	0.0165	0.9585
14.1745	26.586	315.5611	23.2671	-121.3223	-9.2107	285.6085	-32.602	490.4804	-26.1845	167.8196	40.5588	536.3809	-0.0592	0.0182	-0.0073	-0.0462	0.0165	0.9585
14.194	22.5584	274.3626	19.5647	-105.2933	-7.8887	249.2376	-33.9593	523.6901	-28.7192	178.7748	43.8358	571.572	-0.0592	0.0182	-0.0073	-0.0462	0.0165	0.9585
14.2135	18.7479	237.1633	16.4289	-90.8881	-6.8803	216.2457	-34.3254	552.4211	-31.0478	188.1598	46.5955	601.6081	-0.0592	0.0182	-0.0073	-0.0462	0.0165	0.9585
14.233	15.1157	203.7248	13.8837	-77.9815	-6.2323	186.4374	-33.9857	577.5798	-33.1771	196.3192	48.9334	627.4643	-0.0592	0.0182	-0.0073	-0.0462	0.0165	0.9585
14.2525	11.6671	173.7987	11.8926	-66.4521	-5.9281	159.6128	-33.2015	600.3719	-35.0882	203.6953	50.9028	650.4199	-0.0592	0.0182	-0.0073	-0.0462	0.0165	0.9585
14.272	8.43	147.1279	10.3765	-56.185	-5.9094	135.57	-32.1781	621.8503	-36.8188	210.6577	52.5919	671.5906	-0.0592	0.0182	-0.0073	-0.0462	0.0165	0.9585
14.2915	5.4537	123.4291	9.237	-47.0624	-6.0925	114.0813	-31.0462	642.6902	-38.4562	217.4181	54.1125	691.699	-0.0592	0.0182	-0.0073	-0.0462	0.0165	0.9585
14.311	2.7918	102.3598	8.3633	-38.9526	-6.3751	94.8642	-29.8965	663.1019	-40.0929	224.0019	55.5728	711.0028	-0.0592	0.0182	-0.0073	-0.0462	0.0165	0.9585
14.3305	0.48717	83.5215	7.6355	-31.7079	-6.6412	77.5838	-28.8039	682.8516	-41.7924	230.2645	57.046	729.3274	-0.0592	0.0182	-0.0073	-0.0462	0.0165	0.9585
14.35	-1.4206	66.5353	6.9344	-25.1889	-6.769	61.9234	-27.8296	701.3727	-43.6065	235.9451	58.5866	746.1811	-0.0592	0.0182	-0.0073	-0.0462	0.0165	0.9585
14.3695	-2.8799	51.1667	6.1601	-19.3096	-6.65	47.7032	-27.0232	717.9421	-45.5795	240.7432	60.2414	760.9184	-0.0592	0.0182	-0.0073	-0.0462	0.0165	0.9585
14.389	-3.8043	37.4135	5.2557	-14.0695	-6.2023	34.9501	-26.4025	731.8718	-47.701	244.4056	62.0059	772.9093	-0.0592	0.0182	-0.0073	-0.0462	0.0165	0.9585
14.4085	-4.0967	25.4929	4.2154	-9.5473	-5.3859	23.8804	-25.9137	742.6579	-49.8669	246.7934	63.7709	781.6681	-0.0592	0.0182	-0.0073	-0.0462	0.0165	0.9585
14.428	-3.7656	15.7334	3.1021	-5.8602	-4.263	14.807	-25.4463	750.0239	-51.8978	247.8968	65.3412	786.8983	-0.0592	0.0182	-0.0073	-0.0462	0.0165	0.9585
14.4475	-3.0424	8.3842	2.0529	-3.0931	-3.0463	7.9643	-24.8981	753.9906	-53.5726	247.8482	66.4883	788.5799	-0.0592	0.0182	-0.0073	-0.0462	0.0165	0.9585
14.467	-2.2023	3.3634	1.1849	-1.2085	-1.9465	3.2846	-24.2272	755.0814	-54.6651	246.9727	67.0029	787.1894	-0.0592	0.0182	-0.0073	-0.0462	0.0165	0.9585
14.4865	-1.4133	0.30669	0.53537	-0.066071	-1.0631	0.43665	-23.4468	754.4646	-54.9938	245.8107	66.7355	783.848	-0.0592	0.0182	-0.0073	-0.0462	0.0165	0.9585
14.506	-0.75823	-1.2551	0.092762	0.51182	-0.41901	-1.0134	-22.6069	753.827	-54.4647	245.0495	65.6259	780.182	-0.0592	0.0182	-0.0073	-0.0462	0.0165	0.9585
14.5255	-0.26396	-1.7829	-0.17655	0.69936	0.0070208	-1.4942	-21.7594	755.0898	-53.0887	245.4067	63.7092	778.0318	-0.0592	0.0182	-0.0073	-0.0462	0.0165	0.9585
14.545	0.076096	-1.6713	-0.31046	0.64492	0.25448	-1.3739	-20.9263	760.0213	-50.9912	247.4904	61.1129	779.0727	-0.0592	0.0182	-0.0073	-0.0462	0.0165	0.9585
14.5645	0.2839	-1.2238	-0.34585	0.46266	0.36786	-0.94129	-20.0729	769.8233	-48.3879	251.6639	58.026	784.4202	-0.0592	0.0182	-0.0073	-0.0462	0.0165	0.9585
14.584	0.38504	-0.65445	-0.31517	0.23457	0.38583	-0.39798	-19.1002	784.8218	-45.5421	257.9502	54.6579	794.3358	-0.0592	0.0182	-0.0073	-0.0462	0.0165	0.9585
14.6035	0.40353	-0.10808	-0.24687	0.017348	0.33929	0.1214	-17.8652	804.2575	-42.7226	265.9712	51.2096	808.0491	-0.0592	0.0182	-0.0073	-0.0462	0.0165	0.9585
14.623	0.36287	0.31744	-0.16345	-0.15104	0.25427	0.5214	-16.2171	826.1177	-40.1708	274.9039	47.8491	823.6252	-0.0592	0.0182	-0.0073	-0.0462	0.0165	0.9585
14.6425	0.28504	0.55653	-0.08008	-0.24409	0.1513	0.73234	-14.0106	847.153	-38.0736	283.5059	44.692	837.9874	-0.0592	0.0182	-0.0073	-0.0462	0.0165	0.9585
14.662	0.18374	0.55673	-0.0045189	-0.24087	0.042657	0.7012	-11.1629	863.3431	-36.5341	290.2949	41.7983	847.3752	-0.0592	0.0182	-0.0073	-0.0462	0.0165	0.9585
14.6815	0.068205	0.27212	0.058558	-0.12356	-0.06533	0.38379	-7.7084	870.8942	-35.5475	293.9048	39.1701	848.3039	-0.0592	0.0182	-0.0073	-0.0462	0.0165	0.9585
14.701	-0.051664	-0.33432	0.10614	0.1228	-0.16643	-0.26095	-3.7636	867.4517	-34.9972	293.5038	36.7392	838.7013	-0.0592	0.0182	-0.0073	-0.0462	0.0165	0.9585
14.7205	-0.1617	-1.2834	0.13388	0.50648	-0.24849	-1.256	0.52895	852.8984	-34.7005	289.0613	34.3931	818.6399	-0.0592	0.0182	-0.0073	-0.0462	0.0165	0.9585
14.74	-0.23765	-2.5567	0.13403	1.0185	-0.28906	-2.5833	5.0185	829.3878	-34.4766	281.3463	32.0292	790.3327	-0.0592	0.0182	-0.0073	-0.0462	0.0165	0.9585
14.7595	-0.24485	-4.0596	0.090225	1.619	-0.25141	-4.1488	9.5558	800.7257	-34.2118	271.6993	29.6093	757.5072	-0.0592	0.0182	-0.0073	-0.0462	0.0165	0.9585
14.779	-0.13316	-5.5689	-0.023454	2.2155	-0.086462	-5.7281	13.9901	771.366	-33.8813	261.6798	27.1798	724.4438	-0.0592	0.0182	-0.0073	-0.0462	0.0165	0.9585
14.7985	0.16501	-6.6822	-0.23542	2.6439	0.26116	-6.9132	18.1683	745.3435	-33.5345	252.6966	24.8536	694.9703	-0.0592	0.0182	-0.0073	-0.0462	0.0165	0.9585
14.818	0.7316	-6.7696	-0.56977	2.6471	0.84773	-7.0508	21.9481	725.451	-33.2567	245.7296	22.77	671.7016	-0.0592	0.0182	-0.0073	-0.0462	0.0165	0.9585
14.8375	1.6473	-4.9331	-1.0426	1.8613	1.7215	-5.2001	25.2183	712.7776	-33.1253	241.1755	21.042	655.6213	-0.0592	0.0182	-0.0073	-0.0462	0.0165	0.9585
14.857	2.9723	-0.0013447	-1.6467	-0.18363	2.8961	-0.14121	27.9209	706.6505	-33.183	238.8272	19.7236	646.0572	-0.0592	0.0182	-0.0073	-0.0462	0.0165	0.9585
14.8765	4.7102	9.3944	-2.33	-4.0342	4.3159	9.5506	30.0172	704.9136	-33.4387	237.9618	18.8276	640.9836	-0.0592	0.0182	-0.0073	-0.0462	0.0165	0.9585
14.896	6.7596	24.6284	-2.9763	-10.2334	5.8156	25.3161	31.436	704.4549	-33.862	237.52	18.3414	637.5472	-0.0592	0.0182	-0.0073	-0.0462	0.0165	0.9585
14.9155	8.8508	46.7256	-3.3797	-19.1739	7.067	48.2444	32.0681	701.8443	-34.3849	236.3249	18.2358	632.6563	-0.0592	0.0182	-0.0073	-0.0462	0.0165	0.9585
14.935	10.4736	75.7997	-3.2233	-30.8693	7.5278	78.4903	31.7752	693.9466	-34.9129	233.295	18.472	623.5353	-0.0592	0.0182	-0.0073	-0.0462	0.0165	0.9585
